<!DOCTYPE svg PUBLIC "-//W3C//DTD SVG 1.1//EN" "http://www.w3.org/Graphics/SVG/1.1/DTD/svg11.dtd">
<!-- Uploaded to: SVG Repo, www.svgrepo.com, Transformed by: SVG Repo Mixer Tools -->
<svg fill="#ffffff" height="64px" width="64px" version="1.1" id="Layer_1" xmlns="http://www.w3.org/2000/svg" xmlns:xlink="http://www.w3.org/1999/xlink" viewBox="0 0 512.001 512.001" xml:space="preserve" transform="rotate(90)">
<g id="SVGRepo_bgCarrier" stroke-width="0"/>
<g id="SVGRepo_tracerCarrier" stroke-linecap="round" stroke-linejoin="round"/>
<g id="SVGRepo_iconCarrier"> <g> <g> <path d="M450.331,453.362l-19.255-47.677c-53.37,25.324-112.989,39.549-175.886,39.549c-62.364,0-121.494-14.008-174.518-38.93 l-19.002,47.057c-3.434,8.493,0.62,18.164,9.085,21.669c59.008,24.446,121.059,36.883,184.414,36.97c0.217,0,0.435,0,0.641,0 c63.823,0,126.21-12.438,185.436-36.97C449.711,471.527,453.765,461.855,450.331,453.362z"/> </g> </g> <g> <g> <path d="M271.469,10.443C268.927,4.13,262.797,0,255.995,0c-6.802,0-12.932,4.13-15.474,10.443l-45.442,112.535 c1.492-0.151,2.941-0.452,4.472-0.452c24.549,0,44.511,19.968,44.511,44.511s-19.962,44.511-44.511,44.511 c-13.603,0-25.645-6.26-33.815-15.904L93.179,375.332c49.141,23.384,104.064,36.518,162.011,36.518 c58.479,0,113.895-13.348,163.379-37.137L271.469,10.443z M277.446,356.21c-24.549,0-44.511-19.968-44.511-44.511 s19.962-44.511,44.511-44.511c24.549,0,44.511,19.968,44.511,44.511S301.995,356.21,277.446,356.21z"/> </g> </g> </g>
</svg>